Blinker-SemiLight.ufo
<glyph name="numbersign" format="1">
  <advance width="580"/>
  <unicode hex="0023"/>
  <outline>
    <contour>
      <point x="550" y="448" type="line"/>
      <point x="550" y="493" type="line"/>
      <point x="465" y="493" type="line"/>
      <point x="486" y="627" type="line"/>
      <point x="439" y="627" type="line"/>
      <point x="417" y="493" type="line"/>
      <point x="226" y="493" type="line"/>
      <point x="248" y="627" type="line"/>
      <point x="200" y="627" type="line"/>
      <point x="179" y="493" type="line"/>
      <point x="66" y="493" type="line"/>
      <point x="66" y="448" type="line"/>
      <point x="171" y="448" type="line"/>
      <point x="129" y="189" type="line"/>
      <point x="31" y="189" type="line"/>
      <point x="31" y="144" type="line"/>
      <point x="120" y="144" type="line"/>
      <point x="96" y="0" type="line"/>
      <point x="145" y="0" type="line"/>
      <point x="168" y="144" type="line"/>
      <point x="359" y="144" type="line"/>
      <point x="336" y="0" type="line"/>
      <point x="383" y="0" type="line"/>
      <point x="407" y="144" type="line"/>
      <point x="515" y="144" type="line"/>
      <point x="515" y="189" type="line"/>
      <point x="415" y="189" type="line"/>
      <point x="456" y="448" type="line"/>
    </contour>
    <contour>
      <point x="409" y="448" type="line"/>
      <point x="367" y="189" type="line"/>
      <point x="176" y="189" type="line"/>
      <point x="219" y="448" type="line"/>
    </contour>
  </outline>
</glyph>
<glyph name="dollar" format="1">
  <advance width="484"/>
  <unicode hex="0024"/>
  <outline>
    <contour>
      <point x="268" y="614" type="line"/>
      <point x="268" y="724" type="line"/>
      <point x="212" y="724" type="line"/>
      <point x="212" y="614" type="line"/>
    </contour>
    <contour>
      <point x="268" y="-97" type="line"/>
      <point x="268" y="17" type="line"/>
      <point x="212" y="17" type="line"/>
      <point x="212" y="-97" type="line"/>
    </contour>
    <contour>
      <point x="160" y="311" type="curve" smooth="yes"/>
      <point x="297" y="273" type="line" smooth="yes"/>
      <point x="363" y="255"/>
      <point x="383" y="238"/>
      <point x="383" y="176" type="curve"/>
      <point x="383" y="95"/>
      <point x="356" y="53"/>
      <point x="241" y="53" type="curve"/>
      <point x="150" y="53"/>
      <point x="81" y="72"/>
      <point x="44" y="83" type="curve"/>
      <point x="44" y="22" type="line"/>
      <point x="75" y="10"/>
      <point x="149" y="-7"/>
      <point x="241" y="-7" type="curve"/>
      <point x="409" y="-7"/>
      <point x="449" y="71"/>
      <point x="449" y="177" type="curve"/>
      <point x="449" y="282"/>
      <point x="409" y="306"/>
      <point x="319" y="331" type="curve" smooth="yes"/>
      <point x="182" y="370" type="line" smooth="yes"/>
      <point x="125" y="386"/>
      <point x="108" y="410"/>
      <point x="108" y="459" type="curve"/>
      <point x="108" y="546"/>
      <point x="154" y="578"/>
      <point x="253" y="578" type="curve" smooth="yes"/>
      <point x="321" y="578"/>
      <point x="370" y="568"/>
      <point x="404" y="560" type="curve"/>
      <point x="404" y="619" type="line"/>
      <point x="371" y="628"/>
      <point x="326" y="637"/>
      <point x="255" y="637" type="curve" smooth="yes"/>
      <point x="114" y="637"/>
      <point x="44" y="582"/>
      <point x="44" y="454" type="curve"/>
      <point x="44" y="367"/>
      <point x="85" y="331"/>
    </contour>
  </outline>
</glyph>
<glyph name="percent" format="1">
  <advance width="638"/>
  <unicode hex="0025"/>
  <outline>
    <contour>
      <point x="154" y="592" type="curve"/>
      <point x="210" y="592"/>
      <point x="229" y="562"/>
      <point x="229" y="476" type="curve"/>
      <point x="229" y="391"/>
      <point x="210" y="361"/>
      <point x="154" y="361" type="curve"/>
      <point x="99" y="361"/>
      <point x="80" y="391"/>
      <point x="80" y="476" type="curve"/>
      <point x="80" y="562"/>
      <point x="99" y="592"/>
    </contour>
    <contour>
      <point x="154" y="320" type="curve"/>
      <point x="242" y="320"/>
      <point x="276" y="362"/>
      <point x="276" y="476" type="curve"/>
      <point x="276" y="590"/>
      <point x="242" y="632"/>
      <point x="154" y="632" type="curve"/>
      <point x="66" y="632"/>
      <point x="32" y="590"/>
      <point x="32" y="476" type="curve"/>
      <point x="32" y="362"/>
      <point x="66" y="320"/>
    </contour>
    <contour>
      <point x="484" y="268" type="curve"/>
      <point x="539" y="268"/>
      <point x="558" y="237"/>
      <point x="558" y="152" type="curve"/>
      <point x="558" y="68"/>
      <point x="539" y="38"/>
      <point x="484" y="38" type="curve"/>
      <point x="428" y="38"/>
      <point x="409" y="68"/>
      <point x="409" y="152" type="curve"/>
      <point x="409" y="237"/>
      <point x="428" y="268"/>
    </contour>
    <contour>
      <point x="484" y="-4" type="curve"/>
      <point x="572" y="-4"/>
      <point x="605" y="38"/>
      <point x="605" y="152" type="curve"/>
      <point x="605" y="266"/>
      <point x="572" y="308"/>
      <point x="484" y="308" type="curve"/>
      <point x="395" y="308"/>
      <point x="362" y="266"/>
      <point x="362" y="152" type="curve"/>
      <point x="362" y="38"/>
      <point x="395" y="-4"/>
    </contour>
    <component base="fraction" xOffset="246"/>
  </outline>
</glyph>
<glyph name="ampersand" format="1">
  <advance width="719"/>
  <unicode hex="0026"/>
  <outline>
    <contour>
      <point x="480" y="81" type="line"/>
      <point x="453" y="65"/>
      <point x="403" y="53"/>
      <point x="326" y="53" type="curve" smooth="yes"/>
      <point x="168" y="53"/>
      <point x="115" y="141"/>
      <point x="115" y="332" type="curve"/>
      <point x="115" y="509"/>
      <point x="175" y="578"/>
      <point x="313" y="578" type="curve"/>
      <point x="408" y="578"/>
      <point x="452" y="532"/>
      <point x="452" y="469" type="curve" smooth="yes"/>
      <point x="452" y="368"/>
      <point x="369" y="320"/>
      <point x="95" y="319" type="curve"/>
      <point x="95" y="264" type="line"/>
      <point x="400" y="265"/>
      <point x="513" y="325"/>
      <point x="513" y="473" type="curve" smooth="yes"/>
      <point x="513" y="570"/>
      <point x="447" y="637"/>
      <point x="317" y="637" type="curve"/>
      <point x="140" y="637"/>
      <point x="50" y="541"/>
      <point x="50" y="328" type="curve"/>
      <point x="50" y="101"/>
      <point x="130" y="-7"/>
      <point x="326" y="-7" type="curve"/>
      <point x="432" y="-7"/>
      <point x="498" y="15"/>
      <point x="541" y="45" type="curve"/>
      <point x="541" y="287" type="line"/>
      <point x="699" y="287" type="line"/>
      <point x="699" y="341" type="line"/>
      <point x="480" y="341" type="line"/>
    </contour>
  </outline>
</glyph>
<glyph name="slash" format="1">
  <advance width="303"/>
  <unicode hex="002F"/>
  <outline>
    <contour>
      <point x="77" y="-80" type="line"/>
      <point x="280" y="707" type="line"/>
      <point x="227" y="707" type="line"/>
      <point x="23" y="-80" type="line"/>
    </contour>
  </outline>
</glyph>
<glyph name="zero" format="1">
  <advance width="574"/>
  <unicode hex="0030"/>
  <outline>
    <contour>
      <point x="288" y="578" type="curve"/>
      <point x="420" y="578"/>
      <point x="454" y="527"/>
      <point x="454" y="315" type="curve"/>
      <point x="454" y="112"/>
      <point x="415" y="53"/>
      <point x="288" y="53" type="curve"/>
      <point x="154" y="53"/>
      <point x="120" y="105"/>
      <point x="120" y="315" type="curve"/>
      <point x="120" y="519"/>
      <point x="159" y="578"/>
    </contour>
    <contour>
      <point x="288" y="-7" type="curve"/>
      <point x="455" y="-7"/>
      <point x="519" y="70"/>
      <point x="519" y="315" type="curve"/>
      <point x="519" y="569"/>
      <point x="467" y="637"/>
      <point x="288" y="637" type="curve"/>
      <point x="119" y="637"/>
      <point x="55" y="560"/>
      <point x="55" y="315" type="curve"/>
      <point x="55" y="61"/>
      <point x="107" y="-7"/>
    </contour>
  </outline>
</glyph>
<glyph name="one" format="1">
  <advance width="364"/>
  <unicode hex="0031"/>
  <outline>
    <contour>
      <point x="213" y="0" type="line"/>
      <point x="277" y="0" type="line"/>
      <point x="277" y="637" type="line"/>
      <point x="213" y="614" type="line"/>
    </contour>
    <contour>
      <point x="17" y="547" type="line"/>
      <point x="219" y="573" type="line"/>
      <point x="277" y="637" type="line"/>
      <point x="17" y="603" type="line"/>
    </contour>
  </outline>
</glyph>
<glyph name="four" format="1">
  <advance width="519"/>
  <unicode hex="0034"/>
  <outline>
    <contour>
      <point x="490" y="173" type="line"/>
      <point x="490" y="229" type="line"/>
      <point x="399" y="229" type="line"/>
      <point x="399" y="517" type="line"/>
      <point x="335" y="517" type="line"/>
      <point x="335" y="229" type="line"/>
      <point x="104" y="229" type="line"/>
      <point x="179" y="627" type="line"/>
      <point x="117" y="627" type="line"/>
      <point x="39" y="229" type="line"/>
      <point x="39" y="173" type="line"/>
      <point x="335" y="173" type="line"/>
      <point x="335" y="0" type="line"/>
      <point x="399" y="0" type="line"/>
      <point x="399" y="173" type="line"/>
    </contour>
  </outline>
</glyph>
<glyph name="nine" format="1">
  <advance width="516"/>
  <unicode hex="0039"/>
  <outline>
    <contour>
      <point x="461" y="333" type="curve"/>
      <point x="461" y="562"/>
      <point x="403" y="637"/>
      <point x="251" y="637" type="curve"/>
      <point x="118" y="637"/>
      <point x="39" y="561"/>
      <point x="39" y="427" type="curve"/>
      <point x="39" y="290"/>
      <point x="100" y="235"/>
      <point x="218" y="235" type="curve"/>
      <point x="297" y="235"/>
      <point x="357" y="260"/>
      <point x="408" y="296" type="curve"/>
      <point x="408" y="348" type="line"/>
      <point x="362" y="315"/>
      <point x="305" y="291"/>
      <point x="241" y="291" type="curve"/>
      <point x="143" y="291"/>
      <point x="102" y="325"/>
      <point x="102" y="430" type="curve"/>
      <point x="102" y="525"/>
      <point x="152" y="578"/>
      <point x="251" y="578" type="curve"/>
      <point x="361" y="578"/>
      <point x="397" y="521"/>
      <point x="397" y="337" type="curve"/>
      <point x="397" y="132"/>
      <point x="353" y="53"/>
      <point x="192" y="53" type="curve"/>
      <point x="153" y="53"/>
      <point x="124" y="56"/>
      <point x="105" y="59" type="curve"/>
      <point x="105" y="0" type="line"/>
      <point x="121" y="-4"/>
      <point x="160" y="-7"/>
      <point x="192" y="-7" type="curve"/>
      <point x="391" y="-7"/>
      <point x="461" y="99"/>
    </contour>
  </outline>
</glyph>
<glyph name="question" format="1">
  <advance width="386"/>
  <unicode hex="003F"/>
  <outline>
    <contour>
      <point x="357" y="503" type="curve" smooth="yes"/>
      <point x="357" y="598"/>
      <point x="281" y="637"/>
      <point x="186" y="637" type="curve"/>
      <point x="127" y="637"/>
      <point x="73" y="628"/>
      <point x="24" y="609" type="curve"/>
      <point x="24" y="551" type="line"/>
      <point x="60" y="565"/>
      <point x="119" y="579"/>
      <point x="178" y="579" type="curve"/>
      <point x="238" y="579"/>
      <point x="296" y="558"/>
      <point x="296" y="490" type="curve" smooth="yes"/>
      <point x="296" y="415"/>
      <point x="217" y="364"/>
      <point x="132" y="323" type="curve"/>
      <point x="132" y="164" type="line"/>
      <point x="190" y="164" type="line"/>
      <point x="190" y="296" type="line"/>
      <point x="277" y="342"/>
      <point x="357" y="405"/>
    </contour>
    <contour>
      <point x="193" y="0" type="line"/>
      <point x="193" y="66" type="line"/>
      <point x="127" y="66" type="line"/>
      <point x="127" y="0" type="line"/>
    </contour>
  </outline>
</glyph>
<glyph name="at" format="1">
  <advance width="659"/>
  <unicode hex="0040"/>
  <outline>
    <contour>
      <point x="209" y="174" type="curve"/>
      <point x="209" y="106"/>
      <point x="240" y="72"/>
      <point x="304" y="72" type="curve"/>
      <point x="363" y="72"/>
      <point x="413" y="94"/>
      <point x="441" y="128" type="curve"/>
      <point x="424" y="153" type="line"/>
      <point x="406" y="133"/>
      <point x="367" y="116"/>
      <point x="318" y="116" type="curve"/>
      <point x="272" y="116"/>
      <point x="256" y="135"/>
      <point x="256" y="177" type="curve"/>
      <point x="256" y="221"/>
      <point x="277" y="233"/>
      <point x="338" y="233" type="curve"/>
      <point x="380" y="233"/>
      <point x="405" y="228"/>
      <point x="428" y="224" type="curve"/>
      <point x="428" y="260" type="line"/>
      <point x="409" y="264"/>
      <point x="373" y="270"/>
      <point x="332" y="270" type="curve"/>
      <point x="246" y="270"/>
      <point x="209" y="246"/>
    </contour>
    <contour>
      <point x="618" y="289" type="curve"/>
      <point x="618" y="445"/>
      <point x="542" y="557"/>
      <point x="350" y="557" type="curve"/>
      <point x="153" y="557"/>
      <point x="48" y="459"/>
      <point x="48" y="236" type="curve" smooth="yes"/>
      <point x="48" y="8"/>
      <point x="161" y="-76"/>
      <point x="354" y="-76" type="curve"/>
      <point x="435" y="-76"/>
      <point x="497" y="-59"/>
      <point x="537" y="-36" type="curve"/>
      <point x="537" y="12" type="line"/>
      <point x="487" y="-15"/>
      <point x="427" y="-27"/>
      <point x="364" y="-27" type="curve"/>
      <point x="194" y="-27"/>
      <point x="101" y="40"/>
      <point x="101" y="236" type="curve" smooth="yes"/>
      <point x="101" y="432"/>
      <point x="174" y="510"/>
      <point x="350" y="510" type="curve"/>
      <point x="522" y="510"/>
      <point x="568" y="403"/>
      <point x="568" y="284" type="curve"/>
      <point x="568" y="179"/>
      <point x="536" y="117"/>
      <point x="491" y="117" type="curve"/>
      <point x="470" y="117"/>
      <point x="465" y="134"/>
      <point x="465" y="155" type="curve" smooth="yes"/>
      <point x="465" y="296" type="line" smooth="yes"/>
      <point x="465" y="363"/>
      <point x="443" y="412"/>
      <point x="350" y="412" type="curve"/>
      <point x="306" y="412"/>
      <point x="276" y="409"/>
      <point x="242" y="400" type="curve"/>
      <point x="242" y="356" type="line"/>
      <point x="265" y="362"/>
      <point x="294" y="367"/>
      <point x="340" y="367" type="curve" smooth="yes"/>
      <point x="410" y="367"/>
      <point x="419" y="328"/>
      <point x="419" y="291" type="curve" smooth="yes"/>
      <point x="419" y="136" type="line"/>
      <point x="424" y="136" type="line"/>
      <point x="425" y="108"/>
      <point x="437" y="72"/>
      <point x="484" y="72" type="curve"/>
      <point x="570" y="72"/>
      <point x="618" y="159"/>
    </contour>
  </outline>
</glyph>
<glyph name="A" format="1">
  <advance width="596"/>
  <unicode hex="0041"/>
  <outline>
    <contour>
      <point x="13" y="0" type="line"/>
      <point x="81" y="0" type="line"/>
      <point x="246" y="422" type="line" smooth="yes"/>
      <point x="266" y="478"/>
      <point x="296" y="558"/>
      <point x="314" y="627" type="curve"/>
      <point x="265" y="627" type="line"/>
    </contour>
    <contour>
      <point x="583" y="0" type="line"/>
      <point x="332" y="627" type="line"/>
      <point x="281" y="627" type="line"/>
      <point x="299" y="557"/>
      <point x="328" y="478"/>
      <point x="350" y="422" type="curve" smooth="yes"/>
      <point x="514" y="0" type="line"/>
    </contour>
    <contour>
      <point x="120" y="165" type="line"/>
      <point x="471" y="165" type="line"/>
      <point x="471" y="222" type="line"/>
      <point x="120" y="222" type="line"/>
    </contour>
    <contour>
      <point x="298" y="645" type="move" name="top"/>
    </contour>
    <contour>
      <point x="581" y="0" type="move" name="ogonek"/>
    </contour>
  </outline>
</glyph>
<glyph name="B" format="1">
  <advance width="562"/>
  <unicode hex="0042"/>
  <outline>
    <contour>
      <point x="301" y="0" type="line" smooth="yes"/>
      <point x="467" y="0"/>
      <point x="517" y="62"/>
      <point x="517" y="179" type="curve"/>
      <point x="517" y="283"/>
      <point x="464" y="325"/>
      <point x="391" y="333" type="curve"/>
      <point x="445" y="344"/>
      <point x="490" y="373"/>
      <point x="490" y="474" type="curve"/>
      <point x="490" y="582"/>
      <point x="443" y="627"/>
      <point x="300" y="627" type="curve" smooth="yes"/>
      <point x="110" y="627" type="line"/>
      <point x="110" y="570" type="line"/>
      <point x="301" y="570" type="line" smooth="yes"/>
      <point x="401" y="570"/>
      <point x="430" y="541"/>
      <point x="430" y="465" type="curve"/>
      <point x="430" y="387"/>
      <point x="394" y="351"/>
      <point x="301" y="351" type="curve" smooth="yes"/>
      <point x="110" y="351" type="line"/>
      <point x="110" y="296" type="line"/>
      <point x="301" y="296" type="line" smooth="yes"/>
      <point x="421" y="296"/>
      <point x="455" y="262"/>
      <point x="455" y="182" type="curve"/>
      <point x="455" y="96"/>
      <point x="421" y="58"/>
      <point x="301" y="58" type="curve" smooth="yes"/>
      <point x="110" y="58" type="line"/>
      <point x="110" y="0" type="line"/>
    </contour>
    <contour>
      <point x="143" y="0" type="line"/>
      <point x="143" y="627" type="line"/>
      <point x="79" y="627" type="line"/>
      <point x="79" y="0" type="line"/>
    </contour>
  </outline>
</glyph>
<glyph name="C" format="1">
  <advance width="523"/>
  <unicode hex="0043"/>
  <outline>
    <contour>
      <point x="494" y="90" type="line"/>
      <point x="443" y="68"/>
      <point x="380" y="53"/>
      <point x="323" y="53" type="curve" smooth="yes"/>
      <point x="177" y="53"/>
      <point x="116" y="106"/>
      <point x="116" y="315" type="curve" smooth="yes"/>
      <point x="116" y="517"/>
      <point x="185" y="578"/>
      <point x="333" y="578" type="curve"/>
      <point x="385" y="578"/>
      <point x="431" y="576"/>
      <point x="480" y="570" type="curve"/>
      <point x="480" y="628" type="line"/>
      <point x="436" y="635"/>
      <point x="385" y="637"/>
      <point x="333" y="637" type="curve"/>
      <point x="149" y="637"/>
      <point x="50" y="552"/>
      <point x="50" y="315" type="curve" smooth="yes"/>
      <point x="50" y="68"/>
      <point x="135" y="-7"/>
      <point x="310" y="-7" type="curve" smooth="yes"/>
      <point x="391" y="-7"/>
      <point x="449" y="14"/>
      <point x="494" y="32" type="curve"/>
    </contour>
    <contour>
      <point x="317" y="655" type="move" name="top"/>
    </contour>
    <contour>
      <point x="303" y="0" type="move" name="bottom"/>
    </contour>
  </outline>
</glyph>
<glyph name="F" format="1">
  <advance width="502"/>
  <unicode hex="0046"/>
  <outline>
    <contour>
      <point x="143" y="0" type="line"/>
      <point x="143" y="268" type="line"/>
      <point x="438" y="268" type="line"/>
      <point x="438" y="325" type="line"/>
      <point x="143" y="325" type="line"/>
      <point x="143" y="568" type="line"/>
      <point x="475" y="568" type="line"/>
      <point x="475" y="627" type="line"/>
      <point x="79" y="627" type="line"/>
      <point x="79" y="0" type="line"/>
    </contour>
  </outline>
</glyph>
<glyph name="H" format="1">
  <advance width="647"/>
  <unicode hex="0048"/>
  <outline>
    <contour>
      <point x="79" y="0" type="line"/>
      <point x="143" y="0" type="line"/>
      <point x="143" y="627" type="line"/>
      <point x="79" y="627" type="line"/>
    </contour>
    <contour>
      <point x="503" y="0" type="line"/>
      <point x="568" y="0" type="line"/>
      <point x="568" y="627" type="line"/>
      <point x="503" y="627" type="line"/>
    </contour>
    <contour>
      <point x="121" y="288" type="line"/>
      <point x="538" y="288" type="line"/>
      <point x="538" y="348" type="line"/>
      <point x="121" y="348" type="line"/>
    </contour>
    <contour>
      <point x="323" y="645" type="move" name="top"/>
    </contour>
  </outline>
</glyph>
<glyph name="J" format="1">
  <advance width="434"/>
  <unicode hex="004A"/>
  <outline>
    <contour>
      <point x="296" y="627" type="line"/>
      <point x="296" y="231" type="line" smooth="yes"/>
      <point x="296" y="98"/>
      <point x="248" y="53"/>
      <point x="127" y="53" type="curve"/>
      <point x="75" y="53"/>
      <point x="43" y="60"/>
      <point x="20" y="66" type="curve"/>
      <point x="20" y="6" type="line"/>
      <point x="42" y="0"/>
      <point x="77" y="-7"/>
      <point x="137" y="-7" type="curve"/>
      <point x="288" y="-7"/>
      <point x="360" y="59"/>
      <point x="360" y="227" type="curve" smooth="yes"/>
      <point x="360" y="627" type="line"/>
    </contour>
    <contour>
      <point x="328" y="645" type="move" name="top"/>
    </contour>
  </outline>
</glyph>
<glyph name="M" format="1">
  <advance width="738"/>
  <unicode hex="004D"/>
  <outline>
    <contour>
      <point x="659" y="0" type="line"/>
      <point x="659" y="627" type="line"/>
      <point x="579" y="627" type="line"/>
      <point x="370" y="204" type="line"/>
      <point x="161" y="627" type="line"/>
      <point x="79" y="627" type="line"/>
      <point x="79" y="0" type="line"/>
      <point x="140" y="0" type="line"/>
      <point x="140" y="530" type="line"/>
      <point x="340" y="127" type="line"/>
      <point x="398" y="127" type="line"/>
      <point x="598" y="529" type="line"/>
      <point x="598" y="0" type="line"/>
    </contour>
  </outline>
</glyph>
<glyph name="O" format="1">
  <advance width="653"/>
  <unicode hex="004F"/>
  <outline>
    <contour>
      <point x="327" y="-7" type="curve"/>
      <point x="516" y="-7"/>
      <point x="602" y="81"/>
      <point x="602" y="315" type="curve"/>
      <point x="602" y="568"/>
      <point x="528" y="637"/>
      <point x="327" y="637" type="curve"/>
      <point x="138" y="637"/>
      <point x="51" y="549"/>
      <point x="51" y="315" type="curve"/>
      <point x="51" y="62"/>
      <point x="125" y="-7"/>
    </contour>
    <contour>
      <point x="327" y="53" type="curve" smooth="yes"/>
      <point x="169" y="53"/>
      <point x="116" y="95"/>
      <point x="116" y="315" type="curve"/>
      <point x="116" y="521"/>
      <point x="179" y="578"/>
      <point x="327" y="578" type="curve"/>
      <point x="484" y="578"/>
      <point x="537" y="538"/>
      <point x="537" y="315" type="curve"/>
      <point x="537" y="112"/>
      <point x="475" y="53"/>
    </contour>
    <contour>
      <point x="327" y="655" type="move" name="top"/>
    </contour>
  </outline>
</glyph>
<glyph name="Q" format="1">
  <advance width="653"/>
  <unicode hex="0051"/>
  <outline>
    <contour>
      <point x="372" y="38" type="line"/>
      <point x="499" y="-128" type="line"/>
      <point x="576" y="-128" type="line"/>
      <point x="446" y="38" type="line"/>
    </contour>
    <component base="O"/>
  </outline>
</glyph>
<glyph name="S" format="1">
  <advance width="509"/>
  <unicode hex="0053"/>
  <outline>
    <contour>
      <point x="164" y="310" type="curve" smooth="yes"/>
      <point x="323" y="272" type="line" smooth="yes"/>
      <point x="388" y="257"/>
      <point x="407" y="237"/>
      <point x="407" y="176" type="curve"/>
      <point x="407" y="95"/>
      <point x="385" y="53"/>
      <point x="255" y="53" type="curve"/>
      <point x="159" y="53"/>
      <point x="87" y="71"/>
      <point x="47" y="83" type="curve"/>
      <point x="47" y="22" type="line"/>
      <point x="81" y="9"/>
      <point x="158" y="-7"/>
      <point x="255" y="-7" type="curve"/>
      <point x="439" y="-7"/>
      <point x="473" y="71"/>
      <point x="473" y="177" type="curve"/>
      <point x="473" y="282"/>
      <point x="433" y="310"/>
      <point x="344" y="331" type="curve" smooth="yes"/>
      <point x="185" y="370" type="line" smooth="yes"/>
      <point x="128" y="383"/>
      <point x="112" y="412"/>
      <point x="112" y="463" type="curve"/>
      <point x="112" y="547"/>
      <point x="152" y="578"/>
      <point x="268" y="578" type="curve" smooth="yes"/>
      <point x="339" y="578"/>
      <point x="391" y="569"/>
      <point x="425" y="560" type="curve"/>
      <point x="425" y="619" type="line"/>
      <point x="391" y="629"/>
      <point x="343" y="637"/>
      <point x="269" y="637" type="curve" smooth="yes"/>
      <point x="114" y="637"/>
      <point x="48" y="580"/>
      <point x="48" y="458" type="curve"/>
      <point x="48" y="367"/>
      <point x="89" y="328"/>
    </contour>
    <contour>
      <point x="259" y="655" type="move" name="top"/>
    </contour>
    <contour>
      <point x="244" y="0" type="move" name="bottom"/>
    </contour>
  </outline>
</glyph>
<glyph name="T" format="1">
  <advance width="537"/>
  <unicode hex="0054"/>
  <outline>
    <contour>
      <point x="520" y="568" type="line"/>
      <point x="520" y="627" type="line"/>
      <point x="18" y="627" type="line"/>
      <point x="18" y="568" type="line"/>
      <point x="237" y="568" type="line"/>
      <point x="237" y="0" type="line"/>
      <point x="301" y="0" type="line"/>
      <point x="301" y="568" type="line"/>
    </contour>
    <contour>
      <point x="269" y="645" type="move" name="top"/>
    </contour>
    <contour>
      <point x="269" y="0" type="move" name="bottom"/>
    </contour>
  </outline>
</glyph>
<glyph name="Y" format="1">
  <advance width="571"/>
  <unicode hex="0059"/>
  <outline>
    <contour>
      <point x="556" y="627" type="line"/>
      <point x="489" y="627" type="line"/>
      <point x="288" y="299" type="line"/>
      <point x="84" y="627" type="line"/>
      <point x="11" y="627" type="line"/>
      <point x="254" y="241" type="line"/>
      <point x="254" y="0" type="line"/>
      <point x="319" y="0" type="line"/>
      <point x="319" y="241" type="line"/>
    </contour>
    <contour>
      <point x="288" y="645" type="move" name="top"/>
    </contour>
  </outline>
</glyph>
<glyph name="bracketleft" format="1">
  <advance width="270"/>
  <unicode hex="005B"/>
  <outline>
    <contour>
      <point x="244" y="-82" type="line"/>
      <point x="244" y="-34" type="line"/>
      <point x="129" y="-34" type="line"/>
      <point x="129" y="659" type="line"/>
      <point x="244" y="659" type="line"/>
      <point x="244" y="707" type="line"/>
      <point x="77" y="707" type="line"/>
      <point x="77" y="-82" type="line"/>
    </contour>
  </outline>
</glyph>
<glyph name="asciicircum" format="1">
  <advance width="500"/>
  <unicode hex="005E"/>
  <outline>
    <contour>
      <point x="353" y="365" type="line"/>
      <point x="414" y="365" type="line"/>
      <point x="279" y="627" type="line"/>
      <point x="223" y="627" type="line"/>
    </contour>
    <contour>
      <point x="85" y="365" type="line"/>
      <point x="146" y="365" type="line"/>
      <point x="277" y="627" type="line"/>
      <point x="221" y="627" type="line"/>
    </contour>
  </outline>
</glyph>
<glyph name="d" format="1">
  <advance width="542"/>
  <unicode hex="0064"/>
  <outline>
    <contour>
      <point x="470" y="665" type="line"/>
      <point x="408" y="665" type="line"/>
      <point x="408" y="47" type="line"/>
      <point x="412" y="47" type="line"/>
      <point x="417" y="0" type="line"/>
      <point x="470" y="0" type="line"/>
    </contour>
    <contour>
      <point x="420" y="103" type="line"/>
      <point x="378" y="70"/>
      <point x="324" y="50"/>
      <point x="260" y="50" type="curve"/>
      <point x="158" y="50"/>
      <point x="110" y="88"/>
      <point x="110" y="248" type="curve" smooth="yes"/>
      <point x="110" y="409"/>
      <point x="162" y="448"/>
      <point x="287" y="448" type="curve"/>
      <point x="353" y="448"/>
      <point x="391" y="435"/>
      <point x="422" y="419" type="curve"/>
      <point x="438" y="465" type="line"/>
      <point x="406" y="487"/>
      <point x="354" y="504"/>
      <point x="281" y="504" type="curve"/>
      <point x="123" y="504"/>
      <point x="48" y="442"/>
      <point x="48" y="248" type="curve" smooth="yes"/>
      <point x="48" y="56"/>
      <point x="113" y="-7"/>
      <point x="239" y="-7" type="curve"/>
      <point x="313" y="-7"/>
      <point x="381" y="11"/>
      <point x="428" y="68" type="curve"/>
    </contour>
    <contour>
      <point x="547" y="665" type="move" name="caronalt"/>
    </contour>
  </outline>
</glyph>
<glyph name="h" format="1">
  <advance width="553"/>
  <unicode hex="0068"/>
  <outline>
    <contour>
      <point x="72" y="0" type="line"/>
      <point x="134" y="0" type="line"/>
      <point x="134" y="665" type="line"/>
      <point x="72" y="665" type="line"/>
    </contour>
    <contour>
      <point x="119" y="395" type="line"/>
      <point x="171" y="425"/>
      <point x="236" y="448"/>
      <point x="300" y="448" type="curve" smooth="yes"/>
      <point x="385" y="448"/>
      <point x="423" y="412"/>
      <point x="423" y="335" type="curve" smooth="yes"/>
      <point x="423" y="0" type="line"/>
      <point x="485" y="0" type="line"/>
      <point x="485" y="342" type="line" smooth="yes"/>
      <point x="485" y="451"/>
      <point x="426" y="504"/>
      <point x="320" y="504" type="curve" smooth="yes"/>
      <point x="243" y="504"/>
      <point x="178" y="477"/>
      <point x="119" y="443" type="curve"/>
    </contour>
    <contour>
      <point x="103" y="681" type="move" name="top"/>
    </contour>
  </outline>
</glyph>
<glyph name="k" format="1">
  <advance width="487"/>
  <unicode hex="006B"/>
  <outline>
    <contour>
      <point x="397" y="0" type="line"/>
      <point x="477" y="0" type="line"/>
      <point x="252" y="253" type="line"/>
      <point x="179" y="251" type="line"/>
    </contour>
    <contour>
      <point x="391" y="494" type="line"/>
      <point x="179" y="251" type="line"/>
      <point x="252" y="253" type="line"/>
      <point x="467" y="494" type="line"/>
    </contour>
    <contour>
      <point x="114" y="222" type="line"/>
      <point x="235" y="222" type="line"/>
      <point x="235" y="277" type="line"/>
      <point x="114" y="277" type="line"/>
    </contour>
    <component base="l"/>
    <contour>
      <point x="251" y="0" type="move" name="bottom"/>
    </contour>
  </outline>
</glyph>
<glyph name="l" format="1">
  <advance width="206"/>
  <unicode hex="006C"/>
  <outline>
    <contour>
      <point x="134" y="0" type="line"/>
      <point x="134" y="665" type="line"/>
      <point x="72" y="665" type="line"/>
      <point x="72" y="0" type="line"/>
    </contour>
    <contour>
      <point x="103" y="681" type="move" name="top"/>
    </contour>
    <contour>
      <point x="211" y="665" type="move" name="caronalt"/>
    </contour>
    <contour>
      <point x="103" y="0" type="move" name="bottom"/>
    </contour>
  </outline>
</glyph>
<glyph name="q" format="1">
  <advance width="542"/>
  <unicode hex="0071"/>
  <outline>
    <contour>
      <point x="471" y="-152" type="line"/>
      <point x="471" y="485" type="line"/>
      <point x="409" y="485" type="line"/>
      <point x="409" y="-152" type="line"/>
    </contour>
    <contour>
      <point x="421" y="98" type="line"/>
      <point x="374" y="65"/>
      <point x="312" y="50"/>
      <point x="258" y="50" type="curve"/>
      <point x="156" y="50"/>
      <point x="110" y="88"/>
      <point x="110" y="248" type="curve" smooth="yes"/>
      <point x="110" y="412"/>
      <point x="159" y="448"/>
      <point x="289" y="448" type="curve"/>
      <point x="349" y="448"/>
      <point x="399" y="439"/>
      <point x="428" y="431" type="curve"/>
      <point x="471" y="485" type="line"/>
      <point x="433" y="494"/>
      <point x="364" y="504"/>
      <point x="289" y="504" type="curve"/>
      <point x="122" y="504"/>
      <point x="48" y="442"/>
      <point x="48" y="248" type="curve" smooth="yes"/>
      <point x="48" y="55"/>
      <point x="111" y="-7"/>
      <point x="237" y="-7" type="curve"/>
      <point x="305" y="-7"/>
      <point x="372" y="11"/>
      <point x="422" y="49" type="curve"/>
    </contour>
  </outline>
</glyph>
<glyph name="r" format="1">
  <advance width="352"/>
  <unicode hex="0072"/>
  <outline>
    <contour>
      <point x="72" y="0" type="line"/>
      <point x="134" y="0" type="line"/>
      <point x="134" y="426" type="line"/>
      <point x="128" y="494" type="line"/>
      <point x="72" y="494" type="line"/>
    </contour>
    <contour>
      <point x="119" y="391" type="line"/>
      <point x="165" y="420"/>
      <point x="224" y="439"/>
      <point x="282" y="439" type="curve"/>
      <point x="297" y="439"/>
      <point x="318" y="439"/>
      <point x="331" y="436" type="curve"/>
      <point x="331" y="496" type="line"/>
      <point x="324" y="497"/>
      <point x="313" y="497"/>
      <point x="298" y="497" type="curve"/>
      <point x="240" y="497"/>
      <point x="184" y="478"/>
      <point x="135" y="450" type="curve"/>
      <point x="119" y="450" type="line"/>
    </contour>
    <contour>
      <point x="202" y="527" type="move" name="top"/>
    </contour>
    <contour>
      <point x="102" y="0" type="move" name="bottom"/>
    </contour>
  </outline>
</glyph>
<glyph name="t" format="1">
  <advance width="369"/>
  <unicode hex="0074"/>
  <outline>
    <contour>
      <point x="354" y="7" type="curve"/>
      <point x="354" y="60" type="line"/>
      <point x="337" y="55"/>
      <point x="301" y="50"/>
      <point x="273" y="50" type="curve" smooth="yes"/>
      <point x="181" y="50"/>
      <point x="161" y="88"/>
      <point x="161" y="172" type="curve" smooth="yes"/>
      <point x="161" y="616" type="line"/>
      <point x="111" y="616" type="line"/>
      <point x="99" y="485" type="line"/>
      <point x="99" y="170" type="line" smooth="yes"/>
      <point x="99" y="49"/>
      <point x="135" y="-7"/>
      <point x="261" y="-7" type="curve" smooth="yes"/>
      <point x="299" y="-7"/>
      <point x="336" y="1"/>
    </contour>
    <contour>
      <point x="21" y="440" type="line"/>
      <point x="348" y="440" type="line"/>
      <point x="348" y="494" type="line"/>
      <point x="21" y="494" type="line"/>
    </contour>
    <contour>
      <point x="238" y="718" type="move" name="caronalt"/>
    </contour>
    <contour>
      <point x="235" y="0" type="move" name="bottom"/>
    </contour>
  </outline>
</glyph>
<glyph name="v" format="1">
  <advance width="492"/>
  <unicode hex="0076"/>
  <outline>
    <contour>
      <point x="477" y="494" type="line"/>
      <point x="409" y="494" type="line"/>
      <point x="247" y="57" type="line"/>
      <point x="84" y="494" type="line"/>
      <point x="15" y="494" type="line"/>
      <point x="210" y="0" type="line"/>
      <point x="281" y="0" type="line"/>
    </contour>
  </outline>
</glyph>
<glyph name="y" format="1">
  <advance width="493"/>
  <unicode hex="0079"/>
  <outline>
    <contour>
      <point x="219" y="6" type="line"/>
      <point x="190" y="-72"/>
      <point x="176" y="-106"/>
      <point x="113" y="-106" type="curve"/>
      <point x="92" y="-106"/>
      <point x="73" y="-104"/>
      <point x="55" y="-100" type="curve"/>
      <point x="55" y="-155" type="line"/>
      <point x="76" y="-159"/>
      <point x="99" y="-162"/>
      <point x="123" y="-162" type="curve"/>
      <point x="208" y="-162"/>
      <point x="240" y="-112"/>
      <point x="268" y="-40" type="curve" smooth="yes"/>
      <point x="478" y="494" type="line"/>
      <point x="411" y="494" type="line"/>
      <point x="251" y="69" type="line"/>
      <point x="82" y="494" type="line"/>
      <point x="13" y="494" type="line"/>
    </contour>
    <contour>
      <point x="252" y="520" type="move" name="top"/>
    </contour>
  </outline>
</glyph>
<glyph name="asciitilde" format="1">
  <advance width="644"/>
  <unicode hex="007E"/>
  <outline>
    <contour>
      <point x="596" y="455" type="curve"/>
      <point x="538" y="455" type="line"/>
      <point x="538" y="381"/>
      <point x="521" y="292"/>
      <point x="455" y="292" type="curve"/>
      <point x="371" y="292"/>
      <point x="313" y="463"/>
      <point x="197" y="463" type="curve"/>
      <point x="81" y="463"/>
      <point x="48" y="344"/>
      <point x="48" y="239" type="curve"/>
      <point x="106" y="239" type="line"/>
      <point x="106" y="310"/>
      <point x="120" y="403"/>
      <point x="197" y="403" type="curve"/>
      <point x="282" y="403"/>
      <point x="338" y="231"/>
      <point x="455" y="231" type="curve"/>
      <point x="565" y="231"/>
      <point x="596" y="350"/>
    </contour>
  </outline>
</glyph>
<glyph name="cent" format="1">
  <advance width="446"/>
  <unicode hex="00A2"/>
  <outline>
    <contour>
      <point x="288" y="556" type="line"/>
      <point x="288" y="666" type="line"/>
      <point x="234" y="666" type="line"/>
      <point x="234" y="556" type="line"/>
    </contour>
    <contour>
      <point x="288" y="-22" type="line"/>
      <point x="288" y="95" type="line"/>
      <point x="234" y="95" type="line"/>
      <point x="234" y="-22" type="line"/>
    </contour>
    <component base="c" xOffset="-3" yOffset="75"/>
  </outline>
</glyph>
<glyph name="yen" format="1">
  <advance width="550"/>
  <unicode hex="00A5"/>
  <outline>
    <contour>
      <point x="63" y="286" type="line"/>
      <point x="63" y="237" type="line"/>
      <point x="490" y="237" type="line"/>
      <point x="490" y="286" type="line"/>
    </contour>
    <contour>
      <point x="63" y="161" type="line"/>
      <point x="63" y="112" type="line"/>
      <point x="490" y="112" type="line"/>
      <point x="490" y="161" type="line"/>
    </contour>
    <contour>
      <point x="521" y="627" type="line"/>
      <point x="453" y="627" type="line"/>
      <point x="277" y="306" type="line"/>
      <point x="98" y="627" type="line"/>
      <point x="25" y="627" type="line"/>
      <point x="244" y="249" type="line"/>
      <point x="244" y="0" type="line"/>
      <point x="308" y="0" type="line"/>
      <point x="308" y="249" type="line"/>
    </contour>
  </outline>
</glyph>
<glyph name="brokenbar" format="1">
  <advance width="206"/>
  <unicode hex="00A6"/>
  <outline>
    <contour>
      <point x="129" y="380" type="line"/>
      <point x="129" y="707" type="line"/>
      <point x="77" y="707" type="line"/>
      <point x="77" y="380" type="line"/>
    </contour>
    <contour>
      <point x="129" y="-80" type="line"/>
      <point x="129" y="247" type="line"/>
      <point x="77" y="247" type="line"/>
      <point x="77" y="-80" type="line"/>
    </contour>
  </outline>
</glyph>
<glyph name="degree" format="1">
  <advance width="350"/>
  <unicode hex="00B0"/>
  <outline>
    <contour>
      <point x="175" y="366" type="curve" smooth="yes"/>
      <point x="255" y="366"/>
      <point x="308" y="417"/>
      <point x="308" y="500" type="curve" smooth="yes"/>
      <point x="308" y="581"/>
      <point x="255" y="634"/>
      <point x="175" y="634" type="curve" smooth="yes"/>
      <point x="95" y="634"/>
      <point x="42" y="581"/>
      <point x="42" y="500" type="curve" smooth="yes"/>
      <point x="42" y="417"/>
      <point x="95" y="366"/>
    </contour>
    <contour>
      <point x="175" y="408" type="curve" smooth="yes"/>
      <point x="122" y="408"/>
      <point x="85" y="443"/>
      <point x="85" y="500" type="curve" smooth="yes"/>
      <point x="85" y="556"/>
      <point x="122" y="592"/>
      <point x="175" y="592" type="curve" smooth="yes"/>
      <point x="228" y="592"/>
      <point x="265" y="556"/>
      <point x="265" y="500" type="curve" smooth="yes"/>
      <point x="265" y="443"/>
      <point x="228" y="408"/>
    </contour>
  </outline>
</glyph>
<glyph name="uni00B2" format="1">
  <advance width="296"/>
  <unicode hex="00B2"/>
  <outline>
    <contour>
      <point x="262" y="270" type="line"/>
      <point x="262" y="317" type="line"/>
      <point x="87" y="317" type="line"/>
      <point x="208" y="440" type="line" smooth="yes"/>
      <point x="239" y="472"/>
      <point x="256" y="501"/>
      <point x="256" y="542" type="curve"/>
      <point x="256" y="596"/>
      <point x="223" y="633"/>
      <point x="154" y="633" type="curve"/>
      <point x="114" y="633"/>
      <point x="77" y="628"/>
      <point x="46" y="620" type="curve"/>
      <point x="46" y="576" type="line"/>
      <point x="62" y="581"/>
      <point x="111" y="588"/>
      <point x="147" y="588" type="curve"/>
      <point x="189" y="588"/>
      <point x="206" y="566"/>
      <point x="206" y="538" type="curve"/>
      <point x="206" y="508"/>
      <point x="190" y="485"/>
      <point x="167" y="460" type="curve" smooth="yes"/>
      <point x="27" y="317" type="line"/>
      <point x="27" y="270" type="line"/>
    </contour>
  </outline>
</glyph>
<glyph name="uni00B3" format="1">
  <advance width="297"/>
  <unicode hex="00B3"/>
  <outline>
    <contour>
      <point x="181" y="459" type="line"/>
      <point x="214" y="467"/>
      <point x="245" y="494"/>
      <point x="245" y="543" type="curve"/>
      <point x="245" y="601"/>
      <point x="212" y="633"/>
      <point x="145" y="633" type="curve"/>
      <point x="100" y="633"/>
      <point x="65" y="627"/>
      <point x="43" y="620" type="curve"/>
      <point x="43" y="579" type="line"/>
      <point x="54" y="582"/>
      <point x="97" y="590"/>
      <point x="133" y="590" type="curve"/>
      <point x="180" y="590"/>
      <point x="199" y="571"/>
      <point x="199" y="535" type="curve"/>
      <point x="199" y="492"/>
      <point x="164" y="474"/>
      <point x="124" y="474" type="curve"/>
      <point x="77" y="474" type="line"/>
      <point x="77" y="433" type="line"/>
      <point x="137" y="433" type="line"/>
      <point x="193" y="433"/>
      <point x="215" y="413"/>
      <point x="215" y="373" type="curve"/>
      <point x="215" y="331"/>
      <point x="188" y="310"/>
      <point x="127" y="310" type="curve"/>
      <point x="85" y="310"/>
      <point x="58" y="313"/>
      <point x="31" y="319" type="curve"/>
      <point x="31" y="277" type="line"/>
      <point x="52" y="270"/>
      <point x="83" y="265"/>
      <point x="135" y="265" type="curve"/>
      <point x="216" y="265"/>
      <point x="262" y="302"/>
      <point x="262" y="370" type="curve"/>
      <point x="262" y="424"/>
      <point x="233" y="454"/>
      <point x="181" y="457" type="curve"/>
    </contour>
  </outline>
</glyph>
<glyph name="acute" format="1">
  <advance width="283"/>
  <unicode hex="00B4"/>
  <outline>
    <contour>
      <point x="233" y="685" type="line"/>
      <point x="152" y="685" type="line"/>
      <point x="50" y="566" type="line"/>
      <point x="109" y="566" type="line"/>
    </contour>
    <contour>
      <point x="112" y="530" type="move" name="_top"/>
    </contour>
  </outline>
</glyph>
<glyph name="paragraph" format="1">
  <advance width="485"/>
  <unicode hex="00B6"/>
  <outline>
    <contour>
      <point x="410" y="4" type="curve" smooth="yes"/>
      <point x="410" y="627" type="line"/>
      <point x="386" y="631"/>
      <point x="344" y="639"/>
      <point x="273" y="639" type="curve"/>
      <point x="105" y="639"/>
      <point x="34" y="573"/>
      <point x="34" y="383" type="curve" smooth="yes"/>
      <point x="34" y="194"/>
      <point x="82" y="128"/>
      <point x="223" y="128" type="curve"/>
      <point x="274" y="128"/>
      <point x="317" y="136"/>
      <point x="348" y="145" type="curve"/>
      <point x="348" y="4" type="line" smooth="yes"/>
      <point x="348" y="-71"/>
      <point x="320" y="-106"/>
      <point x="241" y="-106" type="curve"/>
      <point x="221" y="-106"/>
      <point x="205" y="-104"/>
      <point x="186" y="-101" type="curve"/>
      <point x="186" y="-157" type="line"/>
      <point x="206" y="-160"/>
      <point x="226" y="-162"/>
      <point x="260" y="-162" type="curve"/>
      <point x="355" y="-162"/>
      <point x="410" y="-105"/>
    </contour>
    <contour>
      <point x="96" y="383" type="curve" smooth="yes"/>
      <point x="96" y="537"/>
      <point x="144" y="579"/>
      <point x="273" y="579" type="curve"/>
      <point x="309" y="579"/>
      <point x="332" y="577"/>
      <point x="348" y="575" type="curve"/>
      <point x="348" y="202" type="line"/>
      <point x="321" y="194"/>
      <point x="279" y="186"/>
      <point x="237" y="186" type="curve"/>
      <point x="129" y="186"/>
      <point x="96" y="231"/>
    </contour>
  </outline>
</glyph>
<glyph name="ordmasculine" format="1">
  <advance width="384"/>
  <unicode hex="00BA"/>
  <outline>
    <contour>
      <point x="64" y="262" type="line"/>
      <point x="319" y="262" type="line"/>
      <point x="319" y="302" type="line"/>
      <point x="64" y="302" type="line"/>
    </contour>
    <contour>
      <point x="193" y="350" type="curve" smooth="yes"/>
      <point x="286" y="350"/>
      <point x="327" y="396"/>
      <point x="327" y="493" type="curve" smooth="yes"/>
      <point x="327" y="595"/>
      <point x="289" y="637"/>
      <point x="193" y="637" type="curve" smooth="yes"/>
      <point x="98" y="637"/>
      <point x="59" y="591"/>
      <point x="59" y="493" type="curve" smooth="yes"/>
      <point x="59" y="393"/>
      <point x="95" y="350"/>
    </contour>
    <contour>
      <point x="193" y="392" type="curve" smooth="yes"/>
      <point x="125" y="392"/>
      <point x="104" y="419"/>
      <point x="104" y="494" type="curve" smooth="yes"/>
      <point x="104" y="567"/>
      <point x="127" y="596"/>
      <point x="193" y="596" type="curve" smooth="yes"/>
      <point x="260" y="596"/>
      <point x="281" y="570"/>
      <point x="281" y="494" type="curve" smooth="yes"/>
      <point x="281" y="421"/>
      <point x="258" y="392"/>
    </contour>
  </outline>
</glyph>
<glyph name="oslash" format="1">
  <advance width="547"/>
  <unicode hex="00F8"/>
  <outline>
    <contour>
      <point x="52" y="-36" type="line"/>
      <point x="89" y="-61" type="line"/>
      <point x="151" y="28" type="line"/>
      <point x="168" y="54" type="line"/>
      <point x="418" y="418" type="line"/>
      <point x="436" y="440" type="line"/>
      <point x="496" y="528" type="line"/>
      <point x="459" y="554" type="line"/>
      <point x="402" y="471" type="line"/>
      <point x="388" y="449" type="line"/>
      <point x="133" y="79" type="line"/>
      <point x="110" y="49" type="line"/>
    </contour>
    <contour>
      <point x="274" y="-7" type="curve" smooth="yes"/>
      <point x="438" y="-7"/>
      <point x="497" y="61"/>
      <point x="497" y="248" type="curve" smooth="yes"/>
      <point x="497" y="444"/>
      <point x="444" y="504"/>
      <point x="274" y="504" type="curve" smooth="yes"/>
      <point x="109" y="504"/>
      <point x="49" y="436"/>
      <point x="49" y="248" type="curve" smooth="yes"/>
      <point x="49" y="53"/>
      <point x="103" y="-7"/>
    </contour>
    <contour>
      <point x="274" y="50" type="curve" smooth="yes"/>
      <point x="143" y="50"/>
      <point x="111" y="89"/>
      <point x="111" y="249" type="curve" smooth="yes"/>
      <point x="111" y="404"/>
      <point x="148" y="448"/>
      <point x="274" y="448" type="curve" smooth="yes"/>
      <point x="403" y="448"/>
      <point x="435" y="409"/>
      <point x="435" y="249" type="curve" smooth="yes"/>
      <point x="435" y="94"/>
      <point x="398" y="50"/>
    </contour>
    <contour>
      <point x="274.0" y="530.0" type="move" name="top"/>
    </contour>
  </outline>
</glyph>
<glyph name="Dcroat" format="1">
  <advance width="623"/>
  <unicode hex="0110"/>
  <outline>
    <contour>
      <point x="334" y="297" type="line"/>
      <point x="334" y="345" type="line"/>
      <point x="23" y="345" type="line"/>
      <point x="23" y="297" type="line"/>
    </contour>
    <component base="D" xOffset="14"/>
  </outline>
</glyph>
<glyph name="dcroat" format="1">
  <advance width="543"/>
  <unicode hex="0111"/>
  <outline>
    <contour>
      <point x="541" y="573" type="line"/>
      <point x="541" y="613" type="line"/>
      <point x="222" y="613" type="line"/>
      <point x="222" y="573" type="line"/>
    </contour>
    <contour>
      <point x="471" y="665" type="line"/>
      <point x="409" y="665" type="line"/>
      <point x="409" y="49" type="line"/>
      <point x="412" y="49" type="line"/>
      <point x="417" y="0" type="line"/>
      <point x="471" y="0" type="line"/>
    </contour>
    <contour>
      <point x="420" y="103" type="line"/>
      <point x="378" y="70"/>
      <point x="324" y="50"/>
      <point x="260" y="50" type="curve"/>
      <point x="158" y="50"/>
      <point x="110" y="87"/>
      <point x="110" y="243" type="curve" smooth="yes"/>
      <point x="110" y="400"/>
      <point x="162" y="437"/>
      <point x="287" y="437" type="curve"/>
      <point x="353" y="437"/>
      <point x="391" y="425"/>
      <point x="422" y="409" type="curve"/>
      <point x="438" y="454" type="line"/>
      <point x="406" y="479"/>
      <point x="355" y="493"/>
      <point x="281" y="493" type="curve"/>
      <point x="123" y="493"/>
      <point x="48" y="433"/>
      <point x="48" y="243" type="curve" smooth="yes"/>
      <point x="48" y="54"/>
      <point x="113" y="-7"/>
      <point x="239" y="-7" type="curve"/>
      <point x="313" y="-7"/>
      <point x="380" y="11"/>
      <point x="428" y="70" type="curve"/>
    </contour>
  </outline>
</glyph>
<glyph name="Hbar" format="1">
  <advance width="674"/>
  <unicode hex="0126"/>
  <outline>
    <contour>
      <point x="647" y="474" type="line"/>
      <point x="647" y="519" type="line"/>
      <point x="27" y="519" type="line"/>
      <point x="27" y="474" type="line"/>
    </contour>
    <component base="H" xOffset="14"/>
  </outline>
</glyph>
<glyph name="hbar" format="1">
  <advance width="553"/>
  <unicode hex="0127"/>
  <outline>
    <contour>
      <point x="320" y="573" type="line"/>
      <point x="320" y="613" type="line"/>
      <point x="2" y="613" type="line"/>
      <point x="2" y="573" type="line"/>
    </contour>
    <contour>
      <point x="72" y="0" type="line"/>
      <point x="134" y="0" type="line"/>
      <point x="134" y="665" type="line"/>
      <point x="72" y="665" type="line"/>
    </contour>
    <contour>
      <point x="119" y="395" type="line"/>
      <point x="171" y="425"/>
      <point x="236" y="448"/>
      <point x="300" y="448" type="curve" smooth="yes"/>
      <point x="385" y="448"/>
      <point x="423" y="412"/>
      <point x="423" y="335" type="curve" smooth="yes"/>
      <point x="423" y="0" type="line"/>
      <point x="485" y="0" type="line"/>
      <point x="485" y="342" type="line" smooth="yes"/>
      <point x="485" y="451"/>
      <point x="426" y="504"/>
      <point x="320" y="504" type="curve" smooth="yes"/>
      <point x="243" y="504"/>
      <point x="178" y="477"/>
      <point x="119" y="443" type="curve"/>
    </contour>
  </outline>
</glyph>
<glyph name="dotlessi" format="1">
  <advance width="206"/>
  <unicode hex="0131"/>
  <outline>
    <contour>
      <point x="72" y="0" type="line"/>
      <point x="134" y="0" type="line"/>
      <point x="134" y="494" type="line"/>
      <point x="72" y="494" type="line"/>
    </contour>
    <contour>
      <point x="103" y="520" type="move" name="top"/>
    </contour>
  </outline>
</glyph>
<glyph name="Lslash" format="1">
  <advance width="504"/>
  <unicode hex="0141"/>
  <outline>
    <contour>
      <point x="363" y="360" type="line"/>
      <point x="363" y="409" type="line"/>
      <point x="35" y="315" type="line"/>
      <point x="35" y="267" type="line"/>
    </contour>
    <component base="L" xOffset="26"/>
  </outline>
</glyph>
<glyph name="Eng" format="1">
  <advance width="662"/>
  <unicode hex="014A"/>
  <outline>
    <contour>
      <point x="583" y="6" type="curve" smooth="yes"/>
      <point x="583" y="627" type="line"/>
      <point x="522" y="627" type="line"/>
      <point x="522" y="109" type="line"/>
      <point x="147" y="627" type="line"/>
      <point x="79" y="627" type="line"/>
      <point x="79" y="0" type="line"/>
      <point x="140" y="0" type="line"/>
      <point x="140" y="525" type="line"/>
      <point x="521" y="4" type="line"/>
      <point x="520" y="-72"/>
      <point x="490" y="-108"/>
      <point x="415" y="-108" type="curve"/>
      <point x="395" y="-108"/>
      <point x="378" y="-106"/>
      <point x="359" y="-103" type="curve"/>
      <point x="359" y="-157" type="line"/>
      <point x="380" y="-161"/>
      <point x="399" y="-163"/>
      <point x="434" y="-163" type="curve"/>
      <point x="527" y="-163"/>
      <point x="583" y="-106"/>
    </contour>
  </outline>
</glyph>
<glyph name="eng" format="1">
  <advance width="553"/>
  <unicode hex="014B"/>
  <outline>
    <contour>
      <point x="72" y="0" type="line"/>
      <point x="134" y="0" type="line"/>
      <point x="134" y="447" type="line"/>
      <point x="129" y="447" type="line"/>
      <point x="125" y="494" type="line"/>
      <point x="72" y="494" type="line"/>
    </contour>
    <contour>
      <point x="485" y="5" type="curve" smooth="yes"/>
      <point x="485" y="342" type="line" smooth="yes"/>
      <point x="485" y="451"/>
      <point x="426" y="504"/>
      <point x="319" y="504" type="curve" smooth="yes"/>
      <point x="241" y="504"/>
      <point x="182" y="484"/>
      <point x="120" y="439" type="curve"/>
      <point x="120" y="389" type="line"/>
      <point x="173" y="422"/>
      <point x="233" y="448"/>
      <point x="297" y="448" type="curve" smooth="yes"/>
      <point x="382" y="448"/>
      <point x="423" y="412"/>
      <point x="423" y="335" type="curve" smooth="yes"/>
      <point x="423" y="11" type="line" smooth="yes"/>
      <point x="423" y="-69"/>
      <point x="395" y="-106"/>
      <point x="316" y="-106" type="curve"/>
      <point x="297" y="-106"/>
      <point x="279" y="-104"/>
      <point x="261" y="-101" type="curve"/>
      <point x="261" y="-156" type="line"/>
      <point x="281" y="-159"/>
      <point x="301" y="-162"/>
      <point x="334" y="-162" type="curve"/>
      <point x="433" y="-162"/>
      <point x="485" y="-107"/>
    </contour>
  </outline>
</glyph>
<glyph name="OE" format="1">
  <advance width="888"/>
  <unicode hex="0152"/>
  <outline>
    <contour>
      <point x="313" y="-7" type="curve"/>
      <point x="497" y="-7"/>
      <point x="573" y="81"/>
      <point x="573" y="315" type="curve"/>
      <point x="573" y="568"/>
      <point x="511" y="637"/>
      <point x="313" y="637" type="curve"/>
      <point x="127" y="637"/>
      <point x="52" y="549"/>
      <point x="52" y="315" type="curve"/>
      <point x="52" y="62"/>
      <point x="114" y="-7"/>
    </contour>
    <contour>
      <point x="313" y="53" type="curve"/>
      <point x="158" y="53"/>
      <point x="117" y="95"/>
      <point x="117" y="315" type="curve"/>
      <point x="117" y="521"/>
      <point x="168" y="578"/>
      <point x="313" y="578" type="curve"/>
      <point x="467" y="578"/>
      <point x="508" y="538"/>
      <point x="508" y="315" type="curve"/>
      <point x="508" y="112"/>
      <point x="458" y="53"/>
    </contour>
    <contour>
      <point x="481" y="568" type="line"/>
      <point x="841" y="568" type="line"/>
      <point x="841" y="627" type="line"/>
      <point x="410" y="627" type="line"/>
    </contour>
    <contour>
      <point x="562" y="293" type="line"/>
      <point x="804" y="293" type="line"/>
      <point x="804" y="349" type="line"/>
      <point x="562" y="349" type="line"/>
    </contour>
    <contour>
      <point x="373" y="0" type="line"/>
      <point x="850" y="0" type="line"/>
      <point x="850" y="61" type="line"/>
      <point x="447" y="61" type="line"/>
    </contour>
  </outline>
</glyph>
<glyph name="oe" format="1">
  <advance width="852"/>
  <unicode hex="0153"/>
  <outline>
    <contour>
      <point x="267" y="-7" type="curve" smooth="yes"/>
      <point x="418" y="-7"/>
      <point x="471" y="61"/>
      <point x="471" y="248" type="curve" smooth="yes"/>
      <point x="471" y="444"/>
      <point x="424" y="504"/>
      <point x="267" y="504" type="curve" smooth="yes"/>
      <point x="107" y="504"/>
      <point x="50" y="436"/>
      <point x="50" y="248" type="curve" smooth="yes"/>
      <point x="50" y="53"/>
      <point x="101" y="-7"/>
    </contour>
    <contour>
      <point x="267" y="50" type="curve" smooth="yes"/>
      <point x="142" y="50"/>
      <point x="112" y="89"/>
      <point x="112" y="249" type="curve" smooth="yes"/>
      <point x="112" y="404"/>
      <point x="147" y="448"/>
      <point x="267" y="448" type="curve" smooth="yes"/>
      <point x="390" y="448"/>
      <point x="421" y="409"/>
      <point x="421" y="249" type="curve" smooth="yes"/>
      <point x="421" y="94"/>
      <point x="386" y="50"/>
    </contour>
    <contour>
      <point x="624" y="448" type="curve"/>
      <point x="718" y="448"/>
      <point x="749" y="401"/>
      <point x="749" y="307" type="curve"/>
      <point x="749" y="296"/>
      <point x="749" y="287"/>
      <point x="748" y="281" type="curve"/>
      <point x="483" y="281" type="line"/>
      <point x="483" y="400"/>
      <point x="521" y="448"/>
    </contour>
    <contour>
      <point x="785" y="27" type="curve"/>
      <point x="785" y="80" type="line"/>
      <point x="759" y="68"/>
      <point x="696" y="50"/>
      <point x="634" y="50" type="curve" smooth="yes"/>
      <point x="533" y="50"/>
      <point x="483" y="90"/>
      <point x="483" y="228" type="curve"/>
      <point x="802" y="228" type="line"/>
      <point x="805" y="250"/>
      <point x="806" y="271"/>
      <point x="806" y="299" type="curve"/>
      <point x="806" y="444"/>
      <point x="755" y="504"/>
      <point x="624" y="504" type="curve"/>
      <point x="491" y="504"/>
      <point x="432" y="432"/>
      <point x="432" y="251" type="curve" smooth="yes"/>
      <point x="432" y="63"/>
      <point x="488" y="-7"/>
      <point x="623" y="-7" type="curve" smooth="yes"/>
      <point x="696" y="-7"/>
      <point x="761" y="13"/>
    </contour>
  </outline>
</glyph>
<glyph name="Tbar" format="1">
  <advance width="553"/>
  <unicode hex="0166"/>
  <outline>
    <contour>
      <point x="478" y="292" type="line"/>
      <point x="478" y="339" type="line"/>
      <point x="76" y="339" type="line"/>
      <point x="76" y="292" type="line"/>
    </contour>
    <component base="T" xOffset="8"/>
  </outline>
</glyph>
<glyph name="tbar" format="1">
  <advance width="382"/>
  <unicode hex="0167"/>
  <outline>
    <contour>
      <point x="356" y="258" type="line"/>
      <point x="356" y="304" type="line"/>
      <point x="30" y="304" type="line"/>
      <point x="30" y="258" type="line"/>
    </contour>
    <component base="t" xOffset="8"/>
  </outline>
</glyph>
<glyph name="uni01B5" format="1">
  <advance width="524"/>
  <unicode hex="01B5"/>
  <outline>
    <contour>
      <point x="470" y="300" type="line"/>
      <point x="470" y="348" type="line"/>
      <point x="57" y="348" type="line"/>
      <point x="57" y="300" type="line"/>
    </contour>
    <component base="Z" xOffset="8"/>
  </outline>
</glyph>
<glyph name="circumflex" format="1">
  <advance width="410"/>
  <unicode hex="02C6"/>
  <outline>
    <contour>
      <point x="302" y="566" type="line"/>
      <point x="360" y="566" type="line"/>
      <point x="238" y="685" type="line"/>
      <point x="173" y="685" type="line"/>
      <point x="50" y="566" type="line"/>
      <point x="109" y="566" type="line"/>
      <point x="205" y="646" type="line"/>
    </contour>
    <contour>
      <point x="205" y="530" type="move" name="_top"/>
    </contour>
  </outline>
</glyph>
<glyph name="breve" format="1">
  <advance width="379"/>
  <unicode hex="02D8"/>
  <outline>
    <contour>
      <point x="329" y="685" type="curve"/>
      <point x="283" y="685" type="line"/>
      <point x="283" y="638"/>
      <point x="249" y="603"/>
      <point x="190" y="603" type="curve" smooth="yes"/>
      <point x="129" y="603"/>
      <point x="96" y="638"/>
      <point x="96" y="685" type="curve"/>
      <point x="50" y="685" type="line"/>
      <point x="50" y="612"/>
      <point x="98" y="559"/>
      <point x="190" y="559" type="curve" smooth="yes"/>
      <point x="281" y="559"/>
      <point x="329" y="612"/>
    </contour>
    <contour>
      <point x="190" y="530" type="move" name="_top"/>
    </contour>
  </outline>
</glyph>
<glyph name="dotaccent" format="1">
  <advance width="177"/>
  <unicode hex="02D9"/>
  <outline>
    <contour>
      <point x="50" y="566" type="line"/>
      <point x="127" y="566" type="line"/>
      <point x="127" y="629" type="line"/>
      <point x="50" y="629" type="line"/>
    </contour>
    <contour>
      <point x="89" y="530" type="move" name="_top"/>
    </contour>
  </outline>
</glyph>
<glyph name="tilde" format="1">
  <advance width="391"/>
  <unicode hex="02DC"/>
  <outline>
    <contour>
      <point x="341" y="682" type="curve"/>
      <point x="297" y="682" type="line"/>
      <point x="297" y="646"/>
      <point x="290" y="608"/>
      <point x="259" y="608" type="curve"/>
      <point x="220" y="608"/>
      <point x="192" y="686"/>
      <point x="131" y="686" type="curve"/>
      <point x="68" y="686"/>
      <point x="50" y="622"/>
      <point x="50" y="566" type="curve"/>
      <point x="94" y="566" type="line"/>
      <point x="94" y="600"/>
      <point x="101" y="641"/>
      <point x="135" y="641" type="curve"/>
      <point x="174" y="641"/>
      <point x="201" y="562"/>
      <point x="263" y="562" type="curve"/>
      <point x="324" y="562"/>
      <point x="341" y="626"/>
    </contour>
    <contour>
      <point x="196" y="530" type="move" name="_top"/>
    </contour>
  </outline>
</glyph>
<glyph name="uni0312" format="1">
  <advance width="170"/>
  <unicode hex="0312"/>
  <outline>
    <contour>
      <point x="70" y="694" type="curve" smooth="yes"/>
      <point x="50" y="566" type="line"/>
      <point x="114" y="566" type="line"/>
      <point x="120" y="722" type="line"/>
      <point x="102" y="722" type="line" smooth="yes"/>
      <point x="83" y="722"/>
      <point x="73" y="713"/>
    </contour>
    <contour>
      <point x="82" y="530" type="move" name="_top"/>
    </contour>
  </outline>
</glyph>
<glyph name="uni0394" format="1">
  <advance width="612"/>
  <unicode hex="0394"/>
  <outline>
    <contour>
      <point x="551" y="0" type="line"/>
      <point x="588" y="0" type="line"/>
      <point x="588" y="61" type="line"/>
      <point x="339" y="627" type="line"/>
      <point x="276" y="627" type="line"/>
    </contour>
    <contour>
      <point x="61" y="0" type="line"/>
      <point x="336" y="627" type="line"/>
      <point x="273" y="627" type="line"/>
      <point x="24" y="61" type="line"/>
      <point x="24" y="0" type="line"/>
    </contour>
    <contour>
      <point x="52" y="61" type="line"/>
      <point x="52" y="0" type="line"/>
      <point x="554" y="0" type="line"/>
      <point x="554" y="61" type="line"/>
    </contour>
  </outline>
</glyph>
<glyph name="pi" format="1">
  <advance width="595"/>
  <unicode hex="03C0"/>
  <outline>
    <contour>
      <point x="26" y="494" type="line"/>
      <point x="26" y="435" type="line"/>
      <point x="562" y="435" type="line"/>
      <point x="562" y="494" type="line"/>
    </contour>
    <contour>
      <point x="443" y="154" type="curve" smooth="yes"/>
      <point x="443" y="452" type="line"/>
      <point x="381" y="452" type="line"/>
      <point x="381" y="144" type="line" smooth="yes"/>
      <point x="381" y="54"/>
      <point x="434" y="0"/>
      <point x="524" y="0" type="curve" smooth="yes"/>
      <point x="551" y="0" type="line"/>
      <point x="551" y="59" type="line"/>
      <point x="539" y="59" type="line" smooth="yes"/>
      <point x="478" y="59"/>
      <point x="443" y="91"/>
    </contour>
    <contour>
      <point x="123" y="0" type="line"/>
      <point x="180" y="128"/>
      <point x="208" y="294"/>
      <point x="202" y="452" type="curve"/>
      <point x="140" y="452" type="line"/>
      <point x="150" y="302"/>
      <point x="113" y="126"/>
      <point x="54" y="0" type="curve"/>
    </contour>
  </outline>
</glyph>
<glyph name="uni1E9E" format="1">
  <advance width="646"/>
  <unicode hex="1E9E"/>
  <outline>
    <contour>
      <point x="319" y="637" type="curve"/>
      <point x="146" y="637"/>
      <point x="74" y="563"/>
      <point x="74" y="416" type="curve" smooth="yes"/>
      <point x="74" y="0" type="line"/>
      <point x="138" y="0" type="line"/>
      <point x="138" y="415" type="line" smooth="yes"/>
      <point x="138" y="532"/>
      <point x="188" y="580"/>
      <point x="315" y="580" type="curve"/>
      <point x="381" y="580"/>
      <point x="445" y="571"/>
      <point x="465" y="567" type="curve"/>
      <point x="386" y="309" type="line"/>
      <point x="484" y="281" type="line" smooth="yes"/>
      <point x="528" y="269"/>
      <point x="545" y="248"/>
      <point x="545" y="184" type="curve" smooth="yes"/>
      <point x="545" y="83"/>
      <point x="500" y="48"/>
      <point x="421" y="48" type="curve" smooth="yes"/>
      <point x="360" y="48"/>
      <point x="324" y="55"/>
      <point x="298" y="60" type="curve"/>
      <point x="298" y="3" type="line"/>
      <point x="330" y="-5"/>
      <point x="378" y="-10"/>
      <point x="432" y="-10" type="curve" smooth="yes"/>
      <point x="538" y="-10"/>
      <point x="609" y="39"/>
      <point x="609" y="186" type="curve" smooth="yes"/>
      <point x="609" y="280"/>
      <point x="580" y="312"/>
      <point x="519" y="330" type="curve" smooth="yes"/>
      <point x="458" y="348" type="line"/>
      <point x="537" y="609" type="line"/>
      <point x="495" y="624"/>
      <point x="419" y="637"/>
    </contour>
  </outline>
</glyph>
<glyph name="uni2070" format="1">
  <advance width="367"/>
  <unicode hex="2070"/>
  <outline>
    <contour>
      <point x="184" y="588" type="curve"/>
      <point x="258" y="588"/>
      <point x="277" y="562"/>
      <point x="277" y="450" type="curve"/>
      <point x="277" y="341"/>
      <point x="256" y="312"/>
      <point x="184" y="312" type="curve"/>
      <point x="109" y="312"/>
      <point x="90" y="338"/>
      <point x="90" y="450" type="curve"/>
      <point x="90" y="558"/>
      <point x="111" y="588"/>
    </contour>
    <contour>
      <point x="184" y="265" type="curve"/>
      <point x="287" y="265"/>
      <point x="327" y="308"/>
      <point x="327" y="450" type="curve"/>
      <point x="327" y="594"/>
      <point x="295" y="633"/>
      <point x="184" y="633" type="curve"/>
      <point x="81" y="633"/>
      <point x="40" y="591"/>
      <point x="40" y="450" type="curve"/>
      <point x="40" y="304"/>
      <point x="72" y="265"/>
    </contour>
  </outline>
</glyph>
<glyph name="uni2075" format="1">
  <advance width="297"/>
  <unicode hex="2075"/>
  <outline>
    <contour>
      <point x="141" y="265" type="curve"/>
      <point x="222" y="265"/>
      <point x="265" y="302"/>
      <point x="265" y="375" type="curve" smooth="yes"/>
      <point x="265" y="457"/>
      <point x="216" y="476"/>
      <point x="150" y="476" type="curve" smooth="yes"/>
      <point x="133" y="476"/>
      <point x="114" y="474"/>
      <point x="99" y="472" type="curve"/>
      <point x="99" y="584" type="line"/>
      <point x="241" y="584" type="line"/>
      <point x="241" y="627" type="line"/>
      <point x="52" y="627" type="line"/>
      <point x="52" y="430" type="line"/>
      <point x="75" y="434"/>
      <point x="101" y="436"/>
      <point x="127" y="436" type="curve" smooth="yes"/>
      <point x="184" y="436"/>
      <point x="216" y="426"/>
      <point x="216" y="376" type="curve" smooth="yes"/>
      <point x="216" y="329"/>
      <point x="192" y="311"/>
      <point x="129" y="311" type="curve"/>
      <point x="93" y="311"/>
      <point x="61" y="314"/>
      <point x="34" y="320" type="curve"/>
      <point x="34" y="277" type="line"/>
      <point x="55" y="270"/>
      <point x="92" y="265"/>
    </contour>
  </outline>
</glyph>
<glyph name="uni2076" format="1">
  <advance width="332"/>
  <unicode hex="2076"/>
  <outline>
    <contour>
      <point x="39" y="439" type="curve"/>
      <point x="39" y="310"/>
      <point x="76" y="265"/>
      <point x="173" y="265" type="curve"/>
      <point x="254" y="265"/>
      <point x="303" y="311"/>
      <point x="303" y="389" type="curve"/>
      <point x="303" y="467"/>
      <point x="268" y="499"/>
      <point x="198" y="499" type="curve"/>
      <point x="146" y="499"/>
      <point x="111" y="485"/>
      <point x="80" y="468" type="curve"/>
      <point x="80" y="431" type="line"/>
      <point x="108" y="446"/>
      <point x="144" y="458"/>
      <point x="181" y="458" type="curve"/>
      <point x="234" y="458"/>
      <point x="256" y="442"/>
      <point x="256" y="388" type="curve"/>
      <point x="256" y="337"/>
      <point x="228" y="307"/>
      <point x="171" y="307" type="curve"/>
      <point x="109" y="307"/>
      <point x="87" y="340"/>
      <point x="87" y="435" type="curve"/>
      <point x="87" y="551"/>
      <point x="112" y="592"/>
      <point x="205" y="592" type="curve"/>
      <point x="225" y="592"/>
      <point x="245" y="590"/>
      <point x="259" y="589" type="curve"/>
      <point x="259" y="628" type="line"/>
      <point x="249" y="631"/>
      <point x="227" y="633"/>
      <point x="205" y="633" type="curve"/>
      <point x="84" y="633"/>
      <point x="39" y="573"/>
    </contour>
  </outline>
</glyph>
<glyph name="uni2077" format="1">
  <advance width="291"/>
  <unicode hex="2077"/>
  <outline>
    <contour>
      <point x="267" y="583" type="line"/>
      <point x="267" y="627" type="line"/>
      <point x="29" y="627" type="line"/>
      <point x="29" y="582" type="line"/>
      <point x="213" y="582" type="line"/>
      <point x="32" y="270" type="line"/>
      <point x="89" y="270" type="line"/>
    </contour>
  </outline>
</glyph>
<glyph name="Euro" format="1">
  <advance width="560"/>
  <unicode hex="20AC"/>
  <outline>
    <contour>
      <point x="35" y="408" type="line"/>
      <point x="35" y="359" type="line"/>
      <point x="471" y="359" type="line"/>
      <point x="471" y="408" type="line"/>
    </contour>
    <contour>
      <point x="35" y="279" type="line"/>
      <point x="35" y="230" type="line"/>
      <point x="471" y="230" type="line"/>
      <point x="471" y="279" type="line"/>
    </contour>
    <contour>
      <point x="521" y="90" type="line"/>
      <point x="476" y="68"/>
      <point x="418" y="53"/>
      <point x="367" y="53" type="curve"/>
      <point x="227" y="53"/>
      <point x="180" y="106"/>
      <point x="180" y="315" type="curve" smooth="yes"/>
      <point x="180" y="517"/>
      <point x="229" y="578"/>
      <point x="377" y="578" type="curve"/>
      <point x="422" y="578"/>
      <point x="465" y="574"/>
      <point x="507" y="568" type="curve"/>
      <point x="507" y="624" type="line"/>
      <point x="469" y="633"/>
      <point x="422" y="637"/>
      <point x="377" y="637" type="curve"/>
      <point x="193" y="637"/>
      <point x="114" y="552"/>
      <point x="114" y="315" type="curve" smooth="yes"/>
      <point x="114" y="72"/>
      <point x="185" y="-7"/>
      <point x="350" y="-7" type="curve"/>
      <point x="428" y="-7"/>
      <point x="483" y="11"/>
      <point x="521" y="32" type="curve"/>
    </contour>
  </outline>
</glyph>
<glyph name="uni20BA" format="1">
  <advance width="561"/>
  <unicode hex="20BA"/>
  <outline>
    <contour>
      <point x="469" y="274" type="line"/>
      <point x="469" y="124"/>
      <point x="411" y="61"/>
      <point x="278" y="61" type="curve" smooth="yes"/>
      <point x="178" y="61" type="line"/>
      <point x="178" y="627" type="line"/>
      <point x="114" y="627" type="line"/>
      <point x="114" y="0" type="line"/>
      <point x="278" y="0" type="line" smooth="yes"/>
      <point x="449" y="0"/>
      <point x="533" y="90"/>
      <point x="533" y="274" type="curve"/>
    </contour>
    <contour>
      <point x="44" y="387" type="line"/>
      <point x="44" y="336" type="line"/>
      <point x="424" y="455" type="line"/>
      <point x="424" y="506" type="line"/>
    </contour>
    <contour>
      <point x="44" y="252" type="line"/>
      <point x="44" y="201" type="line"/>
      <point x="424" y="319" type="line"/>
      <point x="424" y="370" type="line"/>
    </contour>
    <contour>
      <point x="318" y="645" type="move" name="top"/>
    </contour>
  </outline>
</glyph>
<glyph name="product" format="1">
  <advance width="599"/>
  <unicode hex="220F"/>
  <outline>
    <contour>
      <point x="183" y="-152" type="line"/>
      <point x="183" y="582" type="line"/>
      <point x="118" y="582" type="line"/>
      <point x="118" y="-152" type="line"/>
    </contour>
    <contour>
      <point x="480" y="-152" type="line"/>
      <point x="480" y="582" type="line"/>
      <point x="416" y="582" type="line"/>
      <point x="416" y="-152" type="line"/>
    </contour>
    <contour>
      <point x="20" y="627" type="line"/>
      <point x="20" y="566" type="line"/>
      <point x="579" y="566" type="line"/>
      <point x="579" y="627" type="line"/>
    </contour>
  </outline>
</glyph>
<glyph name="minus" format="1">
  <advance width="500"/>
  <unicode hex="2212"/>
  <outline>
    <contour>
      <point x="463" y="292" type="line"/>
      <point x="463" y="352" type="line"/>
      <point x="37" y="352" type="line"/>
      <point x="37" y="292" type="line"/>
    </contour>
  </outline>
</glyph>
<glyph name="radical" format="1">
  <advance width="659"/>
  <unicode hex="221A"/>
  <outline>
    <contour>
      <point x="279" y="-152" type="line"/>
      <point x="318" y="-152" type="line"/>
      <point x="319" y="-95" type="line"/>
      <point x="154" y="327" type="line"/>
      <point x="80" y="327" type="line"/>
    </contour>
    <contour>
      <point x="347" y="-152" type="line"/>
      <point x="658" y="779" type="line"/>
      <point x="590" y="779" type="line"/>
      <point x="301" y="-95" type="line"/>
      <point x="300" y="-152" type="line"/>
    </contour>
    <contour>
      <point x="10" y="327" type="line"/>
      <point x="10" y="266" type="line"/>
      <point x="136" y="266" type="line"/>
      <point x="136" y="327" type="line"/>
    </contour>
  </outline>
</glyph>
<glyph name="infinity" format="1">
  <advance width="948"/>
  <unicode hex="221E"/>
  <outline>
    <contour>
      <point x="707" y="128" type="curve" smooth="yes"/>
      <point x="823" y="128"/>
      <point x="902" y="206"/>
      <point x="902" y="316" type="curve" smooth="yes"/>
      <point x="902" y="425"/>
      <point x="824" y="504"/>
      <point x="707" y="504" type="curve" smooth="yes"/>
      <point x="655" y="504"/>
      <point x="606" y="485"/>
      <point x="569" y="449" type="curve" smooth="yes"/>
      <point x="474" y="357" type="line"/>
      <point x="378" y="449" type="line" smooth="yes"/>
      <point x="341" y="485"/>
      <point x="293" y="504"/>
      <point x="241" y="504" type="curve" smooth="yes"/>
      <point x="125" y="504"/>
      <point x="47" y="425"/>
      <point x="47" y="316" type="curve" smooth="yes"/>
      <point x="47" y="207"/>
      <point x="123" y="128"/>
      <point x="241" y="128" type="curve" smooth="yes"/>
      <point x="293" y="128"/>
      <point x="341" y="146"/>
      <point x="378" y="183" type="curve" smooth="yes"/>
      <point x="474" y="274" type="line"/>
      <point x="569" y="183" type="line" smooth="yes"/>
      <point x="606" y="148"/>
      <point x="655" y="128"/>
    </contour>
    <contour>
      <point x="514" y="316" type="line"/>
      <point x="610" y="408" type="line" smooth="yes"/>
      <point x="636" y="433"/>
      <point x="671" y="446"/>
      <point x="707" y="446" type="curve" smooth="yes"/>
      <point x="784" y="446"/>
      <point x="839" y="394"/>
      <point x="839" y="316" type="curve" smooth="yes"/>
      <point x="839" y="238"/>
      <point x="784" y="186"/>
      <point x="707" y="186" type="curve" smooth="yes"/>
      <point x="671" y="186"/>
      <point x="636" y="199"/>
      <point x="610" y="223" type="curve" smooth="yes"/>
    </contour>
    <contour>
      <point x="338" y="408" type="curve" smooth="yes"/>
      <point x="432" y="316" type="line"/>
      <point x="338" y="223" type="line" smooth="yes"/>
      <point x="312" y="198"/>
      <point x="278" y="186"/>
      <point x="241" y="186" type="curve" smooth="yes"/>
      <point x="164" y="186"/>
      <point x="110" y="238"/>
      <point x="110" y="316" type="curve" smooth="yes"/>
      <point x="110" y="394"/>
      <point x="164" y="446"/>
      <point x="241" y="446" type="curve" smooth="yes"/>
      <point x="278" y="446"/>
      <point x="312" y="434"/>
    </contour>
  </outline>
</glyph>
<glyph name="integral" format="1">
  <advance width="468"/>
  <unicode hex="222B"/>
  <outline>
    <contour>
      <point x="231" y="7" type="curve" smooth="yes"/>
      <point x="301" y="613" type="line" smooth="yes"/>
      <point x="310" y="691"/>
      <point x="338" y="718"/>
      <point x="412" y="718" type="curve" smooth="yes"/>
      <point x="464" y="718" type="line"/>
      <point x="464" y="779" type="line"/>
      <point x="404" y="779" type="line" smooth="yes"/>
      <point x="297" y="779"/>
      <point x="250" y="733"/>
      <point x="237" y="620" type="curve" smooth="yes"/>
      <point x="167" y="14" type="line" smooth="yes"/>
      <point x="159" y="-64"/>
      <point x="130" y="-91"/>
      <point x="57" y="-91" type="curve" smooth="yes"/>
      <point x="6" y="-91" type="line"/>
      <point x="6" y="-152" type="line"/>
      <point x="65" y="-152" type="line" smooth="yes"/>
      <point x="173" y="-152"/>
      <point x="218" y="-105"/>
    </contour>
  </outline>
</glyph>
<glyph name="lozenge" format="1">
  <advance width="581"/>
  <unicode hex="25CA"/>
  <outline>
    <contour>
      <point x="293" y="-79" type="line"/>
      <point x="86" y="318" type="line"/>
      <point x="290" y="722" type="line"/>
      <point x="495" y="314" type="line"/>
    </contour>
    <contour>
      <point x="264" y="-152" type="line"/>
      <point x="318" y="-152" type="line"/>
      <point x="563" y="315" type="line"/>
      <point x="319" y="791" type="line"/>
      <point x="262" y="791" type="line"/>
      <point x="17" y="315" type="line"/>
    </contour>
  </outline>
</glyph>
<glyph name=".notdef" format="1">
  <advance width="382"/>
  <outline>
    <contour>
      <point x="50" y="0" type="line"/>
      <point x="50" y="627" type="line"/>
      <point x="332" y="627" type="line"/>
      <point x="332" y="0" type="line"/>
    </contour>
    <contour>
      <point x="120" y="70" type="line"/>
      <point x="262" y="70" type="line"/>
      <point x="262" y="557" type="line"/>
      <point x="120" y="557" type="line"/>
    </contour>
  </outline>
</glyph>
<glyph name="caron.alt" format="1">
  <advance width="386"/>
  <outline>
    <contour>
      <point x="86" y="529" type="curve" smooth="yes"/>
      <point x="106" y="665" type="line"/>
      <point x="42" y="665" type="line"/>
      <point x="36" y="501" type="line"/>
      <point x="54" y="501" type="line" smooth="yes"/>
      <point x="72" y="501"/>
      <point x="83" y="512"/>
    </contour>
    <contour>
      <point x="42" y="665" type="move" name="_caronalt"/>
    </contour>
  </outline>
</glyph>
<glyph name="eight.tf" format="1">
  <advance width="500"/>
  <outline>
    <contour>
      <point x="249" y="-7" type="curve"/>
      <point x="390" y="-7"/>
      <point x="453" y="47"/>
      <point x="453" y="167" type="curve"/>
      <point x="453" y="255"/>
      <point x="409" y="312"/>
      <point x="328" y="323" type="curve"/>
      <point x="406" y="336"/>
      <point x="442" y="391"/>
      <point x="442" y="479" type="curve"/>
      <point x="442" y="588"/>
      <point x="385" y="638"/>
      <point x="249" y="638" type="curve"/>
      <point x="118" y="638"/>
      <point x="58" y="585"/>
      <point x="58" y="475" type="curve"/>
      <point x="58" y="392"/>
      <point x="93" y="335"/>
      <point x="172" y="323" type="curve"/>
      <point x="88" y="310"/>
      <point x="47" y="247"/>
      <point x="47" y="160" type="curve"/>
      <point x="47" y="44"/>
      <point x="107" y="-7"/>
    </contour>
    <contour>
      <point x="249" y="581" type="curve"/>
      <point x="345" y="581"/>
      <point x="384" y="546"/>
      <point x="384" y="469" type="curve"/>
      <point x="384" y="397"/>
      <point x="355" y="347"/>
      <point x="248" y="347" type="curve"/>
      <point x="144" y="347"/>
      <point x="116" y="397"/>
      <point x="116" y="467" type="curve"/>
      <point x="116" y="546"/>
      <point x="155" y="581"/>
    </contour>
    <contour>
      <point x="248" y="293" type="curve"/>
      <point x="349" y="293"/>
      <point x="393" y="256"/>
      <point x="393" y="174" type="curve"/>
      <point x="393" y="89"/>
      <point x="349" y="52"/>
      <point x="249" y="52" type="curve"/>
      <point x="151" y="52"/>
      <point x="108" y="87"/>
      <point x="108" y="169" type="curve"/>
      <point x="108" y="255"/>
      <point x="151" y="293"/>
    </contour>
  </outline>
</glyph>
<glyph name="five.osf" format="1">
  <advance width="453"/>
  <outline>
    <contour>
      <point x="212" y="-159" type="curve"/>
      <point x="350" y="-159"/>
      <point x="415" y="-96"/>
      <point x="415" y="37" type="curve" smooth="yes"/>
      <point x="415" y="180"/>
      <point x="334" y="215"/>
      <point x="222" y="215" type="curve" smooth="yes"/>
      <point x="186" y="215"/>
      <point x="157" y="211"/>
      <point x="134" y="208" type="curve"/>
      <point x="134" y="435" type="line"/>
      <point x="375" y="435" type="line"/>
      <point x="375" y="494" type="line"/>
      <point x="70" y="494" type="line"/>
      <point x="70" y="148" type="line"/>
      <point x="112" y="157"/>
      <point x="151" y="160"/>
      <point x="194" y="160" type="curve" smooth="yes"/>
      <point x="292" y="160"/>
      <point x="351" y="141"/>
      <point x="351" y="38" type="curve" smooth="yes"/>
      <point x="351" y="-62"/>
      <point x="307" y="-99"/>
      <point x="198" y="-99" type="curve"/>
      <point x="133" y="-99"/>
      <point x="82" y="-92"/>
      <point x="40" y="-81" type="curve"/>
      <point x="40" y="-140" type="line"/>
      <point x="75" y="-151"/>
      <point x="132" y="-159"/>
    </contour>
  </outline>
</glyph>
<glyph name="four.tf" format="1">
  <advance width="500"/>
  <outline>
    <contour>
      <point x="471" y="173" type="line"/>
      <point x="471" y="229" type="line"/>
      <point x="385" y="229" type="line"/>
      <point x="385" y="518" type="line"/>
      <point x="321" y="518" type="line"/>
      <point x="321" y="229" type="line"/>
      <point x="104" y="229" type="line"/>
      <point x="175" y="628" type="line"/>
      <point x="113" y="628" type="line"/>
      <point x="39" y="229" type="line"/>
      <point x="39" y="173" type="line"/>
      <point x="321" y="173" type="line"/>
      <point x="321" y="0" type="line"/>
      <point x="385" y="0" type="line"/>
      <point x="385" y="173" type="line"/>
    </contour>
  </outline>
</glyph>
<glyph name="grave.uc" format="1">
  <advance width="283"/>
  <outline>
    <contour>
      <point x="52" y="675" type="line"/>
      <point x="175" y="566" type="line"/>
      <point x="233" y="566" type="line"/>
      <point x="133" y="675" type="line"/>
    </contour>
    <contour>
      <point x="172" y="530" type="move" name="_top"/>
    </contour>
  </outline>
</glyph>
<glyph name="hungarumlaut.uc" format="1">
  <advance width="464"/>
  <outline>
    <contour>
      <point x="230" y="675" type="line"/>
      <point x="154" y="675" type="line"/>
      <point x="55" y="566" type="line"/>
      <point x="111" y="566" type="line"/>
    </contour>
    <contour>
      <point x="406" y="675" type="line"/>
      <point x="331" y="675" type="line"/>
      <point x="231" y="566" type="line"/>
      <point x="288" y="566" type="line"/>
    </contour>
    <contour>
      <point x="199" y="530" type="move" name="_top"/>
    </contour>
  </outline>
</glyph>
<glyph name="ogonek.alt" format="1">
  <advance width="327"/>
  <outline>
    <contour>
      <point x="255" y="43" type="curve"/>
      <point x="227" y="59" type="line"/>
      <point x="167" y="37"/>
      <point x="68" y="-17"/>
      <point x="68" y="-106" type="curve"/>
      <point x="68" y="-154"/>
      <point x="98" y="-192"/>
      <point x="168" y="-192" type="curve"/>
      <point x="201" y="-192"/>
      <point x="232" y="-185"/>
      <point x="246" y="-181" type="curve"/>
      <point x="246" y="-138" type="line"/>
      <point x="231" y="-142"/>
      <point x="204" y="-148"/>
      <point x="180" y="-148" type="curve"/>
      <point x="140" y="-148"/>
      <point x="116" y="-129"/>
      <point x="116" y="-96" type="curve"/>
      <point x="116" y="-32"/>
      <point x="185" y="10"/>
    </contour>
    <contour>
      <point x="255" y="43" type="move" name="_ogonekalt"/>
    </contour>
  </outline>
</glyph>
<glyph name="seven.osf" format="1">
  <advance width="440"/>
  <outline>
    <contour>
      <point x="414" y="436" type="line"/>
      <point x="414" y="494" type="line"/>
      <point x="28" y="494" type="line"/>
      <point x="28" y="435" type="line"/>
      <point x="345" y="435" type="line"/>
      <point x="38" y="-152" type="line"/>
      <point x="110" y="-152" type="line"/>
    </contour>
  </outline>
</glyph>
<glyph name="three.osf" format="1">
  <advance width="454"/>
  <outline>
    <contour>
      <point x="274" y="188" type="line"/>
      <point x="327" y="203"/>
      <point x="380" y="246"/>
      <point x="380" y="342" type="curve"/>
      <point x="380" y="445"/>
      <point x="326" y="504"/>
      <point x="217" y="504" type="curve"/>
      <point x="149" y="504"/>
      <point x="92" y="493"/>
      <point x="54" y="482" type="curve"/>
      <point x="54" y="425" type="line"/>
      <point x="79" y="433"/>
      <point x="143" y="445"/>
      <point x="202" y="445" type="curve"/>
      <point x="286" y="445"/>
      <point x="320" y="407"/>
      <point x="320" y="333" type="curve"/>
      <point x="320" y="242"/>
      <point x="256" y="208"/>
      <point x="188" y="208" type="curve"/>
      <point x="111" y="208" type="line"/>
      <point x="111" y="152" type="line"/>
      <point x="207" y="152" type="line"/>
      <point x="309" y="152"/>
      <point x="348" y="110"/>
      <point x="348" y="30" type="curve"/>
      <point x="348" y="-53"/>
      <point x="298" y="-99"/>
      <point x="193" y="-99" type="curve"/>
      <point x="117" y="-99"/>
      <point x="74" y="-92"/>
      <point x="33" y="-82" type="curve"/>
      <point x="33" y="-140" type="line"/>
      <point x="68" y="-151"/>
      <point x="116" y="-159"/>
      <point x="202" y="-159" type="curve"/>
      <point x="336" y="-159"/>
      <point x="409" y="-94"/>
      <point x="409" y="26" type="curve"/>
      <point x="409" y="127"/>
      <point x="358" y="180"/>
      <point x="274" y="186" type="curve"/>
    </contour>
  </outline>
</glyph>
<glyph name="tilde.uc" format="1">
  <advance width="391"/>
  <outline>
    <contour>
      <point x="341" y="663" type="curve"/>
      <point x="297" y="663" type="line"/>
      <point x="297" y="640"/>
      <point x="289" y="606"/>
      <point x="257" y="606" type="curve"/>
      <point x="219" y="606"/>
      <point x="191" y="667"/>
      <point x="131" y="667" type="curve"/>
      <point x="68" y="667"/>
      <point x="50" y="613"/>
      <point x="50" y="566" type="curve"/>
      <point x="94" y="566" type="line"/>
      <point x="94" y="588"/>
      <point x="101" y="623"/>
      <point x="136" y="623" type="curve"/>
      <point x="176" y="623"/>
      <point x="202" y="562"/>
      <point x="263" y="562" type="curve"/>
      <point x="324" y="562"/>
      <point x="341" y="616"/>
    </contour>
    <contour>
      <point x="196" y="530" type="move" name="_top"/>
    </contour>
  </outline>
</glyph>
<glyph name="two.osf" format="1">
  <advance width="442"/>
  <outline>
    <contour>
      <point x="401" y="0" type="line"/>
      <point x="401" y="58" type="line"/>
      <point x="116" y="58" type="line"/>
      <point x="297" y="214" type="line" smooth="yes"/>
      <point x="356" y="264"/>
      <point x="384" y="310"/>
      <point x="384" y="371" type="curve"/>
      <point x="384" y="458"/>
      <point x="328" y="504"/>
      <point x="216" y="504" type="curve"/>
      <point x="161" y="504"/>
      <point x="102" y="494"/>
      <point x="57" y="478" type="curve"/>
      <point x="57" y="420" type="line"/>
      <point x="101" y="435"/>
      <point x="160" y="446"/>
      <point x="208" y="446" type="curve"/>
      <point x="288" y="446"/>
      <point x="324" y="418"/>
      <point x="324" y="361" type="curve"/>
      <point x="324" y="316"/>
      <point x="296" y="285"/>
      <point x="249" y="243" type="curve" smooth="yes"/>
      <point x="35" y="57" type="line"/>
      <point x="35" y="0" type="line"/>
    </contour>
  </outline>
</glyph>
<glyph name="two.tf" format="1">
  <advance width="500"/>
  <outline>
    <contour>
      <point x="444" y="0" type="line"/>
      <point x="444" y="61" type="line"/>
      <point x="121" y="61" type="line"/>
      <point x="342" y="295" type="line" smooth="yes"/>
      <point x="396" y="353"/>
      <point x="431" y="407"/>
      <point x="431" y="482" type="curve"/>
      <point x="431" y="575"/>
      <point x="376" y="638"/>
      <point x="257" y="638" type="curve"/>
      <point x="192" y="638"/>
      <point x="130" y="630"/>
      <point x="77" y="615" type="curve"/>
      <point x="77" y="557" type="line"/>
      <point x="114" y="569"/>
      <point x="194" y="579"/>
      <point x="250" y="579" type="curve"/>
      <point x="332" y="579"/>
      <point x="366" y="536"/>
      <point x="366" y="477" type="curve"/>
      <point x="366" y="415"/>
      <point x="334" y="370"/>
      <point x="289" y="322" type="curve" smooth="yes"/>
      <point x="44" y="61" type="line"/>
      <point x="44" y="0" type="line"/>
    </contour>
  </outline>
</glyph>
<glyph name="zero.osf" format="1">
  <advance width="557"/>
  <outline>
    <contour>
      <point x="279" y="448" type="curve"/>
      <point x="412" y="448"/>
      <point x="445" y="390"/>
      <point x="445" y="248" type="curve"/>
      <point x="445" y="115"/>
      <point x="407" y="53"/>
      <point x="279" y="53" type="curve"/>
      <point x="146" y="53"/>
      <point x="112" y="109"/>
      <point x="112" y="248" type="curve"/>
      <point x="112" y="384"/>
      <point x="151" y="448"/>
    </contour>
    <contour>
      <point x="279" y="-7" type="curve"/>
      <point x="444" y="-7"/>
      <point x="506" y="72"/>
      <point x="506" y="248" type="curve"/>
      <point x="506" y="432"/>
      <point x="449" y="504"/>
      <point x="279" y="504" type="curve"/>
      <point x="114" y="504"/>
      <point x="51" y="424"/>
      <point x="51" y="248" type="curve"/>
      <point x="51" y="65"/>
      <point x="110" y="-7"/>
    </contour>
  </outline>
</glyph>
<glyph name="zero.tf" format="1">
  <advance width="500"/>
  <outline>
    <contour>
      <point x="251" y="579" type="curve"/>
      <point x="371" y="579"/>
      <point x="402" y="528"/>
      <point x="402" y="315" type="curve"/>
      <point x="402" y="112"/>
      <point x="367" y="53"/>
      <point x="251" y="53" type="curve"/>
      <point x="129" y="53"/>
      <point x="99" y="105"/>
      <point x="99" y="315" type="curve"/>
      <point x="99" y="520"/>
      <point x="134" y="579"/>
    </contour>
    <contour>
      <point x="251" y="-7" type="curve"/>
      <point x="407" y="-7"/>
      <point x="467" y="70"/>
      <point x="467" y="315" type="curve"/>
      <point x="467" y="570"/>
      <point x="419" y="638"/>
      <point x="251" y="638" type="curve"/>
      <point x="94" y="638"/>
      <point x="34" y="561"/>
      <point x="34" y="315" type="curve"/>
      <point x="34" y="61"/>
      <point x="83" y="-7"/>
    </contour>
  </outline>
</glyph>
